<?xml version="1.0" encoding="UTF-8"?>
<svg version="1.1" xmlns="http://www.w3.org/2000/svg" width="107" height="107" viewBox="0 0 107.000000 107.000000"
 preserveAspectRatio="xMidYMid meet">
<path d="M0 0 C1.07894531 0.02074081 2.15789062 0.04148163 3.26953125 0.06285095 C5.54564493 0.11123849 7.82156236 0.16981732 10.09716797 0.23803711 C13.5243569 0.33872316 16.95078108 0.4034619 20.37890625 0.46289062 C42.54766547 0.94200957 63.63699033 2.95659836 81.5625 17.27734375 C82.51189453 17.98310547 82.51189453 17.98310547 83.48046875 18.703125 C96.41226921 28.83731741 102.400856 45.37953457 105.03125 61.07421875 C105.30718106 63.48095077 105.46649159 65.85713184 105.5625 68.27734375 C105.6140625 69.08816406 105.665625 69.89898437 105.71875 70.734375 C106.32763723 87.65636582 101.92875419 103.22526214 90.8125 116.21484375 C80.93594175 126.37486817 68.58150074 132.65551841 54.5625 134.27734375 C58.28938942 139.88302751 62.01882811 145.48700951 65.75 151.08984375 C66.32450897 151.95257904 66.89901794 152.81531433 67.49093628 153.70419312 C76.20372395 166.78351154 84.96929096 179.82616145 93.77056885 192.84606934 C111.01581997 218.36175307 111.01581997 218.36175307 118.77072144 230.1602478 C119.84263584 231.7906182 120.91845073 233.41842207 121.99438477 235.04614258 C122.61112061 235.98997803 123.22785645 236.93381348 123.86328125 237.90625 C124.39091064 238.7113501 124.91854004 239.5164502 125.4621582 240.34594727 C126.5625 242.27734375 126.5625 242.27734375 126.5625 244.27734375 C118.91420672 244.6498595 111.26686167 244.9332069 103.61153603 245.1063385 C100.05496313 245.18950323 96.50463501 245.30194992 92.95166016 245.484375 C70.20756355 246.62088097 70.20756355 246.62088097 64.39358521 242.88287354 C60.91583777 239.28660304 59.10945234 235.08270927 57.40600586 230.43518066 C56.10041466 227.09524788 54.21833949 224.17598328 52.32421875 221.14453125 C51.64501916 219.99159146 50.97020845 218.83605495 50.29980469 217.67797852 C48.51095172 214.60114495 46.71766758 211.52693879 44.92245483 208.45381165 C44.18408517 207.18971849 43.44598388 205.92546854 42.7081604 204.66105652 C39.42896937 199.04251891 36.12550608 193.43850791 32.8125 187.83984375 C32.29413574 186.96352295 31.77577148 186.08720215 31.24169922 185.18432617 C30.2067081 183.43496089 29.17155304 181.68569258 28.13623047 179.93652344 C25.93682696 176.2201252 23.73840035 172.50315814 21.54418945 168.78369141 C20.44375729 166.92533398 19.33695729 165.0707305 18.22338867 163.22021484 C15.65235503 158.93062158 13.20821958 154.64872629 11.015625 150.15234375 C10.40593872 148.96185425 10.40593872 148.96185425 9.78393555 147.74731445 C9.04050946 146.28317068 8.33716358 144.79756956 7.68676758 143.28979492 C6.58970204 140.93796219 6.58970204 140.93796219 3.5625 138.27734375 C-1.0575 137.94734375 -5.6775 137.61734375 -10.4375 137.27734375 C-10.4375 172.58734375 -10.4375 207.89734375 -10.4375 244.27734375 C-27.2675 244.27734375 -44.0975 244.27734375 -61.4375 244.27734375 C-61.47937753 208.70537036 -61.37170083 173.14129209 -61.06518555 137.57080078 C-61.02111015 132.44777025 -60.97948011 127.32472958 -60.94018555 122.20166016 C-60.68455151 88.886639 -60.23521593 55.58400356 -59.4375 22.27734375 C-58.18147278 21.69700114 -56.92544556 21.11665853 -55.66941833 20.53631592 C-54.46904607 19.98168608 -54.46904607 19.98168608 -53.24442387 19.41585159 C-51.49682631 18.60838401 -49.7492238 17.80092713 -48.00161648 16.99348068 C-44.40144809 15.33008314 -40.80130785 13.66662549 -37.20144653 12.00256348 C-34.75046357 10.86959016 -32.29911482 9.73741251 -29.84765625 8.60546875 C-28.65360168 8.05318604 -28.65360168 8.05318604 -27.4354248 7.48974609 C-25.86363014 6.76426544 -24.2889626 6.04497018 -22.71121216 5.33253479 C-21.20730617 4.63459767 -19.71984694 3.89995472 -18.25241089 3.12828064 C-12.08747862 0.01761348 -6.83288796 -0.222707 0 0 Z M-10.4375 44.27734375 C-10.4375 62.75734375 -10.4375 81.23734375 -10.4375 100.27734375 C-0.8778125 100.37015625 -0.8778125 100.37015625 8.875 100.46484375 C10.86313721 100.49215576 12.85127441 100.51946777 14.8996582 100.54760742 C28.02326527 100.65414336 39.0417182 99.93507044 49.5625 91.27734375 C55.58365461 84.94741198 56.64722916 77.78203369 56.5625 69.27734375 C55.21171794 61.22893398 52.14498936 54.91970844 45.4375 50.08984375 C37.98267354 44.98399091 29.44096884 43.82201333 20.6171875 43.984375 C19.42331421 43.98890686 19.42331421 43.98890686 18.20532227 43.99353027 C15.28257954 44.00901593 12.36002425 44.05089667 9.4375 44.08984375 C2.87875 44.15171875 -3.68 44.21359375 -10.4375 44.27734375 Z " fill="#FBFDFD" transform="translate(353.4375,124.72265625)"/>
<path d="M0 0 C0.04685294 21.36736994 0.08205372 42.73473133 0.10362434 64.10214233 C0.113909 74.02481815 0.12791521 83.94746194 0.15087891 93.87011719 C0.17089925 102.5251162 0.18373683 111.180092 0.18817699 119.83511353 C0.19076982 124.41203692 0.19680459 128.98889392 0.21146011 133.5657959 C0.22518109 137.88643413 0.22919378 142.20697953 0.22621536 146.52763748 C0.22675911 148.10122815 0.23064916 149.67482239 0.23841095 151.24839401 C0.36347624 177.94544226 -4.2492264 203.35546739 -23.26953125 223.390625 C-46.27336325 245.24240725 -76.18648063 248.78509051 -106.59423828 248.13623047 C-127.79604371 247.28815825 -148.94592549 240.12521159 -165 226 C-166.12341797 225.01773438 -166.12341797 225.01773438 -167.26953125 224.015625 C-183.08952981 209.2466996 -190.18354873 187.72010264 -191.16073227 166.5114975 C-191.39930777 157.17235915 -191.35520156 147.83263918 -191.30418181 138.49133253 C-191.28520043 134.41949975 -191.28364792 130.34765756 -191.28010559 126.27578735 C-191.27084726 118.59460085 -191.24631934 110.91354516 -191.21605712 103.2324158 C-191.1823175 94.47523071 -191.16597835 85.71803879 -191.15097082 76.9608047 C-191.11976287 58.97379613 -191.06712576 40.98690865 -191 23 C-186.71744898 20.99176748 -182.43481066 18.98372129 -178.15209961 16.97583008 C-176.70253273 16.2961908 -175.25298761 15.61650511 -173.8034668 14.93676758 C-173.10713135 14.61023193 -172.4107959 14.28369629 -171.69335938 13.94726562 C-170.99546295 13.61997467 -170.29756653 13.29268372 -169.57852173 12.95547485 C-168.16843339 12.29459965 -166.75809349 11.63426093 -165.34750366 10.97445679 C-161.78190702 9.30648294 -158.21998638 7.63143238 -154.66455078 5.94189453 C-153.97494766 5.61580704 -153.28534454 5.28971954 -152.57484436 4.95375061 C-151.26433297 4.33397455 -149.95520896 3.71125384 -148.64768982 3.08518982 C-144.22548009 1 -144.22548009 1 -142 1 C-141.25958614 20.12059548 -140.79574566 39.22534169 -140.56061101 58.35923767 C-140.51680286 61.82840458 -140.46796556 65.2975 -140.41929626 68.76660156 C-140.25558299 80.48590902 -140.0966346 92.20526463 -139.95043945 103.92480469 C-139.86890655 110.45666246 -139.78081044 116.98839834 -139.68557256 123.52007103 C-139.63586343 126.94894868 -139.58941814 130.3777962 -139.5512867 133.80682373 C-139.50747554 137.6161738 -139.45234417 141.42521137 -139.39477539 145.234375 C-139.37986557 146.89126846 -139.37986557 146.89126846 -139.36465454 148.58163452 C-139.10860384 163.4507779 -137.21439936 179.40764098 -127 191 C-117.07242149 199.69297334 -106.02765599 202.38926826 -93.02734375 202.2109375 C-81.4264847 201.40261958 -71.30287665 197.82928237 -63.1875 189.3125 C-53.03349101 176.76367757 -52.66264204 162.08414784 -52.41015625 146.7265625 C-52.37345092 144.87723853 -52.33625228 143.0279243 -52.29859924 141.17861938 C-51.86069643 118.70825906 -51.66612434 96.23337304 -51.46777344 73.7598877 C-51.41630582 68.00526861 -51.36129372 62.25068331 -51.30664062 56.49609375 C-51.20109204 45.33075841 -51.09925203 34.16539297 -51 23 C-46.64346804 20.95313684 -42.28642598 18.90736459 -37.92893982 16.86253357 C-36.45148925 16.16903513 -34.97417031 15.47525617 -33.49699402 14.78117371 C-25.04708036 10.81105156 -16.59102665 6.86190049 -8.0625 3.0625 C-7.34074585 2.74091919 -6.6189917 2.41933838 -5.87536621 2.0880127 C-1.13352443 0 -1.13352443 0 0 0 Z " fill="#FBFDFD" transform="translate(218,125)"/>
</svg>
