<?xml version="1.0" encoding="UTF-8" standalone="no"?>
<!DOCTYPE svg PUBLIC "-//W3C//DTD SVG 1.1//EN" "http://www.w3.org/Graphics/SVG/1.1/DTD/svg11.dtd">
<svg 
  version="1.1" 
  stroke-miterlimit="10" 
  style="fill-rule:nonzero;clip-rule:evenodd;stroke-linecap:round;stroke-linejoin:round;" 
  xmlns="http://www.w3.org/2000/svg" 
  width="107" 
  height="107" 
  viewBox="0 0 107.000000 107.000000"
  preserveAspectRatio="xMidYMid meet"
  xml:space="preserve" 
  xmlns="http://www.w3.org/2000/svg" 
  xmlns:xlink="http://www.w3.org/1999/xlink">
<defs/>
<g id="Layer-1">
<path d="M349.206 177.45C330.143 177.45 312.858 187.337 295.838 204.358C282.878 217.318 269.64 235.003 255.811 257.13C238.209 285.294 219.874 320.366 201.026 360.961C183.8 398.063 167.102 437.76 151.533 477.389C146.088 491.249 141.158 504.059 136.849 515.626C135.337 519.686 131.481 530.181 131.408 530.385C128.196 539.38 119.174 568.63 119.174 568.63C119.174 568.63 148.149 568.622 158.391 568.622L467.045 569.856L444.614 511.378L199.759 511.378C201.49 506.889 202.89 503 204.753 498.259C219.931 459.624 236.216 421.056 252.904 385.111C270.838 346.484 288.167 313.335 304.335 287.467C316.061 268.705 326.88 254.264 336.311 244.832C340.598 240.545 344.411 237.531 347.418 235.813C348.192 235.37 348.706 235.191 349.206 234.993C349.707 235.191 350.221 235.37 350.995 235.813C354.002 237.531 357.815 240.545 362.101 244.832C371.533 254.264 382.352 268.705 394.078 287.467C410.246 313.335 427.575 346.484 445.509 385.111C462.197 421.056 478.482 459.624 493.66 498.259C498.976 511.791 503.778 524.417 507.971 535.677C509.435 539.606 516.969 560.314 518.481 564.374C522.789 575.941 527.72 588.751 533.165 602.611C548.734 642.241 565.432 681.937 582.658 719.039C601.506 759.635 619.84 794.706 637.443 822.87C651.272 844.996 664.51 862.683 677.469 875.642C694.49 892.663 711.774 902.55 730.838 902.55C749.902 902.55 767.186 892.663 784.207 875.642C797.167 862.682 810.404 844.997 824.234 822.87C841.836 794.706 860.171 759.634 879.019 719.039C896.245 681.937 912.943 642.24 928.512 602.611C933.957 588.751 938.887 575.941 943.195 564.374C944.708 560.314 948.564 549.819 948.637 549.615C951.908 540.456 960.826 511.758 960.826 511.758C960.826 511.758 931.722 511.378 921.654 511.378L611.126 512.051L635.43 568.622L880.286 568.622C878.554 573.111 877.155 577 875.292 581.741C860.114 620.376 843.829 658.944 827.141 694.889C809.207 733.516 791.877 766.665 775.71 792.533C763.983 811.295 753.165 825.736 743.733 835.168C739.447 839.455 735.634 842.469 732.627 844.187C731.853 844.63 731.339 844.809 730.838 845.007C730.338 844.809 729.824 844.63 729.049 844.187C726.042 842.469 722.229 839.455 717.943 835.168C708.511 825.736 697.693 811.295 685.967 792.533C669.799 766.665 652.47 733.516 634.536 694.889C617.847 658.944 601.563 620.376 586.385 581.741C581.069 568.209 576.267 555.583 572.073 544.323C570.61 540.394 563.076 519.686 561.564 515.626C557.255 504.059 552.325 491.249 546.88 477.389C531.311 437.759 514.613 398.063 497.387 360.961C478.539 320.365 460.204 285.294 442.602 257.13C428.773 235.004 415.535 217.317 402.575 204.358C385.555 187.337 368.27 177.45 349.206 177.45Z" fill="#fcfefe" fill-rule="nonzero" opacity="1" stroke="none"/>
</g>
</svg>
